<?xml version="1.0" encoding="UTF-8"?>
<svg xmlns="http://www.w3.org/2000/svg" width="512" height="512" viewBox="0 0 128 128">
  <defs>
    <linearGradient id="bg" x1="0" y1="0" x2="1" y2="1">
      <stop offset="0" stop-color="#38bdf8"/>
      <stop offset="1" stop-color="#1d4ed8"/>
    </linearGradient>
    <clipPath id="print">
      <ellipse cx="64" cy="62" rx="40" ry="34"/>
    </clipPath>
  </defs>
  <rect width="128" height="128" rx="28" fill="url(#bg)"/>
  <g stroke="#ffffff" stroke-width="4.5" stroke-linecap="round" fill="none">
    <g clip-path="url(#print)">
      <ellipse cx="64" cy="62" rx="40" ry="34"/>
      <ellipse cx="64" cy="62" rx="31" ry="27"/>
      <ellipse cx="64" cy="62" rx="22" ry="20"/>
      <ellipse cx="64" cy="62" rx="13" ry="12"/>
      <path d="M64 62 a1 1 0 1 1 -0.2 0" stroke-width="5"/>
      <path d="M34 30 c2 12 -2 30 -2 44 M42 22 c4 14 0 40 -2 56 M52 20 c2 16 -2 44 -1 58 M76 20 c-2 16 2 44 1 58 M86 22 c-4 14 0 40 2 56 M94 30 c-2 12 2 30 2 44"/>
    </g>
  </g>
  <circle cx="64" cy="62" r="3" fill="#ffffff"/>
</svg>